<svg width="26" height="26" viewBox="0 0 26 26" fill="none" xmlns="http://www.w3.org/2000/svg">
<g id="earnings">
<path id="Vector" d="M7.51158 17.1663C7.92952 17.1663 8.33035 17.0003 8.62588 16.7048C8.92141 16.4092 9.08744 16.0084 9.08744 15.5905C9.09257 15.5381 9.09257 15.4853 9.08744 15.4329L12.0186 12.5018H12.5018L14.1933 14.1932V14.2773C14.1933 14.6952 14.3593 15.096 14.6548 15.3916C14.9503 15.6871 15.3512 15.8531 15.7691 15.8531C16.1871 15.8531 16.5879 15.6871 16.8834 15.3916C17.179 15.096 17.345 14.6952 17.345 14.2773V14.1932L21.1691 10.3376C21.4808 10.3376 21.7854 10.2452 22.0446 10.072C22.3037 9.89885 22.5057 9.65273 22.625 9.36478C22.7443 9.07682 22.7755 8.75997 22.7147 8.45428C22.6539 8.14859 22.5038 7.8678 22.2834 7.64741C22.063 7.42702 21.7822 7.27694 21.4765 7.21613C21.1708 7.15533 20.854 7.18653 20.566 7.30581C20.2781 7.42508 20.032 7.62706 19.8588 7.88621C19.6856 8.14536 19.5932 8.45004 19.5932 8.76172C19.5881 8.81412 19.5881 8.8669 19.5932 8.9193L15.8006 12.7119H15.6325L13.815 10.8629C13.815 10.4449 13.649 10.0441 13.3535 9.74857C13.058 9.45304 12.6571 9.28701 12.2392 9.28701C11.8212 9.28701 11.4204 9.45304 11.1249 9.74857C10.8293 10.0441 10.6633 10.4449 10.6633 10.8629L7.51158 14.0146C7.09363 14.0146 6.6928 14.1806 6.39727 14.4762C6.10174 14.7717 5.93571 15.1725 5.93571 15.5905C5.93571 16.0084 6.10174 16.4092 6.39727 16.7048C6.6928 17.0003 7.09363 17.1663 7.51158 17.1663ZM21.6944 21.3687H3.83455V3.50883C3.83455 3.2302 3.72387 2.96298 3.52685 2.76596C3.32983 2.56894 3.06261 2.45825 2.78398 2.45825C2.50535 2.45825 2.23813 2.56894 2.04111 2.76596C1.84408 2.96298 1.7334 3.2302 1.7334 3.50883V22.4192C1.7334 22.6979 1.84408 22.9651 2.04111 23.1621C2.23813 23.3591 2.50535 23.4698 2.78398 23.4698H21.6944C21.973 23.4698 22.2402 23.3591 22.4372 23.1621C22.6343 22.9651 22.745 22.6979 22.745 22.4192C22.745 22.1406 22.6343 21.8734 22.4372 21.6764C22.2402 21.4793 21.973 21.3687 21.6944 21.3687Z" fill="white"/>
</g>
</svg>
