<svg width="143" height="136" viewBox="0 0 143 136" fill="none" xmlns="http://www.w3.org/2000/svg">
<g id="Group">
<path id="Vector" d="M47.1809 38.2776C46.8849 38.4146 46.8531 38.4674 46.1201 39.0702C24.9836 53.9531 22.7496 85.8806 47.933 100.355C66.3836 110.846 89.9701 105.795 99.6961 86.3208L99.6994 86.3143C116.343 52.6329 73.7677 20.0836 47.1809 38.2776ZM96.6856 84.8233C85.7644 106.666 56.1523 107.281 41.2869 90.8333C31.1701 80.2423 30.3935 63.5462 38.8522 51.2698C43.3313 44.5611 50.6314 38.5776 58.635 36.9705C81.2917 31.9935 110.009 57.8554 96.6856 84.8233Z" fill="black"/>
<path id="Vector_2" d="M64.8545 67.522C64.854 67.5222 64.8551 67.5219 64.8545 67.522C60.6889 68.7448 56.3764 64.7588 58.4584 59.5C59.6659 56.9843 61.932 56.7894 63.1636 56.877C65.6475 57.0806 67.8928 58.7402 68.5026 60.8268C68.7631 61.7179 69.6947 62.2215 70.588 61.9675C71.4791 61.707 71.9904 60.7742 71.7298 59.881C70.6937 56.3388 66.9574 53.4386 62.5095 53.514L61.9386 51.5632C61.6769 50.6699 60.7431 50.1619 59.8531 50.4225C58.9609 50.683 58.4508 51.6179 58.7113 52.509L59.2197 54.2461C53.9861 56.6493 53.079 64.0964 56.8514 68.2337C59.0977 70.6985 62.5081 71.7108 65.7986 70.7494C65.7985 70.7494 65.7987 70.7494 65.7986 70.7494C69.8336 69.5611 74.1362 73.3024 72.2476 78.6621C68.7324 83.1682 63.2983 81.463 62.1269 77.4535C61.8652 76.5624 60.9292 76.0523 60.0414 76.3128C59.1503 76.5734 58.6391 77.5061 58.8996 78.3994C60.0537 82.3467 63.8222 85.0604 68.1126 84.6557L68.6361 86.4456C68.8507 87.1791 69.5218 87.6542 70.2487 87.6542C71.3716 87.6542 72.1774 86.5765 71.8634 85.4998L71.3398 83.7096C73.3939 82.6623 75.0497 80.7684 75.3118 80.0765C76.7251 76.3588 76.135 72.5886 73.7321 69.9875C71.4596 67.5289 68.0552 66.5849 64.8545 67.522Z" fill="black"/>
<path id="Vector_3" d="M83.3688 63.9052L81.0973 64.492C80.1974 64.7241 79.6577 65.6414 79.8898 66.5413C80.0857 67.2989 80.7677 67.8024 81.5165 67.8024C81.8971 67.8024 81.973 67.723 84.2096 67.1631C85.1083 66.931 85.6491 66.0137 85.4171 65.1138C85.1839 64.2161 84.2654 63.6819 83.3688 63.9052Z" fill="black"/>
<path id="Vector_4" d="M46.1578 73.5324L43.8862 74.1192C42.9875 74.3513 42.4467 75.2686 42.6788 76.1685C42.8747 76.9261 43.5567 77.4296 44.3055 77.4296C44.6861 77.4296 44.762 77.3502 46.9986 76.7903C47.8984 76.5582 48.4381 75.6409 48.206 74.741C47.9729 73.8433 47.061 73.3091 46.1578 73.5324Z" fill="black"/>
<path id="Vector_5" d="M140.779 111.938L122.482 97.4499C119.03 94.7233 113.973 97.1894 113.973 101.568V106.882H107.016C123.205 88.2892 123.741 61.8275 111.146 43.32C99.5709 26.8015 82.8858 17.3818 69.1305 15.6912C66.0426 15.2364 67.362 15.4886 64.3684 15.3639V14.198C64.3684 12.4924 62.9606 11.1043 61.2298 11.1043H37.0604V5.79048C37.0604 1.40409 32.0056 -1.06534 28.5522 1.66992L10.2483 16.1597C7.57136 18.3068 7.60438 22.3698 10.3217 24.4315C12.8321 26.3602 16.3725 29.0298 19.9624 31.7234C-0.193373 49.2806 -6.4888 79.4207 9.5838 103.357C25.3898 126.095 56.4088 134.61 79.7871 122.685C81.8603 122.333 86.4411 120.816 86.6768 120.736V121.387C86.6768 123.119 88.0846 124.527 89.8154 124.527H113.973V129.834C113.973 134.164 118.911 136.636 122.365 134.04C127.872 129.911 136.041 123.776 140.71 120.222C143.436 118.153 143.475 114.071 140.779 111.938ZM37.0604 14.4673H61.0054C61.0054 14.8428 61.0054 25.9687 61.0054 25.3861H37.0604V14.4673ZM12.3611 21.7582C11.3638 21.002 11.4015 19.5457 12.3436 18.7893L30.6387 4.30603C31.8821 3.3179 33.6974 4.20244 33.6974 5.79048C33.6974 6.19721 33.6974 27.3374 33.6974 27.0676C33.6974 28.6531 33.6974 34.291 33.6974 34.0607C33.6974 35.6078 31.9555 36.5056 30.7 35.5693C27.3201 33.0022 19.0341 26.8777 12.3611 21.7582ZM86.6768 109.976V117.208C85.9229 117.426 86.1115 117.372 86.0758 117.383C67.7165 124.658 38.7716 118.727 23.7923 95.1247C13.1172 78.4321 14.0646 54.9356 27.6221 37.4693C29.2171 38.6639 30.3143 39.514 32.4757 39.2372C35.2877 38.878 37.0604 36.5808 37.0604 34.0607V28.7491H61.2298C62.9606 28.7491 64.3684 27.3304 64.3684 25.5875V18.6973C67.546 18.8486 66.1675 18.654 68.7145 19.0279C81.5228 20.6077 97.359 29.5056 108.379 45.2313C121.355 64.2959 118.592 90.7561 102.446 106.882H89.8154C88.0846 106.882 86.6768 108.27 86.6768 109.976ZM113.973 121.164H90.0398C90.0398 120.871 90.0398 109.718 90.0398 110.245C95.9998 110.245 107.819 110.245 113.973 110.245V121.164ZM138.675 117.547C134.01 121.096 125.849 127.226 120.347 131.351C119.11 132.283 117.336 131.4 117.336 129.834C117.336 129.345 117.336 108.231 117.336 108.504V101.568C117.336 99.9877 119.158 99.1036 120.397 100.088L138.693 114.574C139.663 115.342 139.653 116.804 138.675 117.547Z" fill="black"/>
<path id="Vector_6" d="M106.602 22.9448C107.441 22.9448 108.165 22.3187 108.269 21.4648L109.869 8.26453C109.98 7.34277 109.324 6.5064 108.402 6.39474C107.481 6.27432 106.641 6.93772 106.53 7.86167L104.93 21.0619C104.809 22.065 105.594 22.9448 106.602 22.9448Z" fill="black"/>
<path id="Vector_7" d="M116.557 29.3557L130.497 14.8921C131.142 14.2244 131.122 13.1581 130.453 12.5144C129.786 11.8707 128.722 11.8904 128.075 12.5582L114.135 27.0217C113.49 27.6917 113.51 28.7558 114.179 29.3995C114.845 30.0428 115.911 30.0252 116.557 29.3557Z" fill="black"/>
<path id="Vector_8" d="M120.801 34.8161C120.734 35.7423 121.429 36.548 122.355 36.6158C135.41 37.5729 133.683 37.461 133.925 37.461C134.798 37.461 135.535 36.7866 135.6 35.9021C135.668 34.9759 134.973 34.1702 134.047 34.1024L122.602 33.2616C121.661 33.22 120.869 33.89 120.801 34.8161Z" fill="black"/>
</g>
</svg>
