<svg width="26" height="26" viewBox="0 0 26 26" fill="none" xmlns="http://www.w3.org/2000/svg">
<g id="rewards c">
<path id="Vector" d="M16.0627 20.8114L12.974 18.9939L9.88527 20.8114L10.7047 17.3024L7.98373 14.9492L11.5662 14.6445L12.974 11.3562L14.3817 14.6445L17.9642 14.9492L15.2432 17.3024M21.3786 2.42627H4.56935V4.52742L9.67516 8.35153C7.89381 9.11171 6.42967 10.4638 5.53035 12.1791C4.63103 13.8944 4.35173 15.8677 4.73969 17.7652C5.12764 19.6627 6.15904 21.368 7.65945 22.5927C9.15986 23.8174 11.0372 24.4863 12.974 24.4863C14.9107 24.4863 16.7881 23.8174 18.2885 22.5927C19.7889 21.368 20.8203 19.6627 21.2083 17.7652C21.5962 15.8677 21.3169 13.8944 20.4176 12.1791C19.5183 10.4638 18.0541 9.11171 16.2728 8.35153L21.3786 4.52742M19.2774 16.0838C19.278 17.2775 18.9396 18.4469 18.3015 19.4558C17.6635 20.4648 16.7521 21.2718 15.6733 21.783C14.5946 22.2942 13.3929 22.4886 12.208 22.3435C11.0231 22.1984 9.90372 21.7199 8.98016 20.9635C8.05659 20.2072 7.36679 19.2041 6.99099 18.0711C6.6152 16.938 6.56887 15.7216 6.85739 14.5632C7.14591 13.4049 7.75743 12.3523 8.62079 11.5279C9.48415 10.7034 10.5639 10.1412 11.7343 9.90638C12.5522 9.73824 13.3957 9.73824 14.2137 9.90638C15.6413 10.1927 16.9258 10.9645 17.8489 12.0906C18.772 13.2167 19.2767 14.6277 19.2774 16.0838ZM13.6358 7.67916H12.3121L8.1098 4.52742H17.9222L13.6358 7.67916Z" fill="white"/>
</g>
</svg>
