<svg width="24" height="24" viewBox="0 0 24 24" fill="none" xmlns="http://www.w3.org/2000/svg">
<g id="etherscan-logo 1" clip-path="url(#clip0_1_155)">
<g id="Layer_x0020_1">
<g id="circle">
<g id="Group_3">
<path id="Path_1" d="M4.99621 11.4134C4.99621 10.8594 5.45125 10.4044 6.00421 10.4044H7.70437C8.25829 10.4044 8.73253 10.8594 8.73253 11.4335V17.8454C8.93029 17.7858 9.16741 17.7263 9.44485 17.6668C9.82021 17.5679 10.0976 17.2319 10.0976 16.8354V8.87991C10.0976 8.32599 10.5527 7.85079 11.1258 7.85079H12.826C13.3799 7.85079 13.8541 8.30583 13.8541 8.87991V16.2623C13.8541 16.2623 14.2698 16.0838 14.6845 15.9062C15.0013 15.7679 15.1991 15.4713 15.1991 15.1142V6.30807C15.1991 5.75415 15.6541 5.27895 16.208 5.27895H17.9082C18.4621 5.27895 18.9172 5.73399 18.9172 6.30807V13.5714C20.3802 12.503 21.8836 11.2166 23.0701 9.67287C23.4263 9.21783 23.5252 8.62359 23.3274 8.06967C21.152 1.81623 14.3111 -1.50921 8.06245 0.668072C1.81381 2.84535 -1.50779 9.69207 0.666607 15.9465C0.903727 16.6588 1.22053 17.3318 1.59589 17.9846C1.89253 18.4991 2.44645 18.7957 3.03973 18.7362C3.35653 18.7161 3.75205 18.6767 4.24549 18.6172C4.68037 18.5778 4.99717 18.2015 4.99717 17.7657L4.99621 11.4134Z" fill="white"/>
<path id="Path_2" d="M4.95703 21.7045C10.3158 25.6031 17.8105 24.4155 21.7052 19.053C23.1884 16.9947 23.9986 14.5208 23.9986 11.9883C23.9986 11.7109 23.9785 11.4344 23.9593 11.157C19.5903 17.7071 11.5023 20.7743 4.95703 21.7045Z" fill="white"/>
</g>
</g>
</g>
</g>
<defs>
<clipPath id="clip0_1_155">
<rect width="24" height="24" fill="white"/>
</clipPath>
</defs>
</svg>
