<svg width="24" height="24" viewBox="0 0 24 24" fill="none" xmlns="http://www.w3.org/2000/svg">
<g id="gitbook-svgrepo-com 1">
<path id="Vector" d="M10.8016 17.7701C10.8939 17.7702 10.9853 17.7885 11.0706 17.824C11.1558 17.8594 11.2332 17.9113 11.2984 17.9767C11.3636 18.042 11.4153 18.1196 11.4505 18.205C11.4857 18.2903 11.5037 18.3817 11.5036 18.4741C11.5035 18.5664 11.4852 18.6578 11.4497 18.743C11.4143 18.8283 11.3624 18.9057 11.297 18.9709C11.2316 19.0361 11.1541 19.0877 11.0687 19.1229C10.9834 19.1581 10.8919 19.1762 10.7996 19.1761C10.6132 19.1758 10.4345 19.1015 10.3028 18.9695C10.1712 18.8374 10.0973 18.6585 10.0976 18.4721C10.0979 18.2856 10.1722 18.1069 10.3042 17.9753C10.4363 17.8436 10.6152 17.7698 10.8016 17.7701ZM21.8256 13.4231C21.7333 13.423 21.6419 13.4048 21.5566 13.3694C21.4714 13.334 21.3939 13.2821 21.3287 13.2168C21.2634 13.1515 21.2117 13.0739 21.1764 12.9886C21.1412 12.9033 21.123 12.8119 21.1231 12.7196C21.1232 12.6272 21.1414 12.5358 21.1768 12.4506C21.2122 12.3653 21.264 12.2878 21.3294 12.2226C21.3947 12.1574 21.4722 12.1057 21.5575 12.0704C21.6429 12.0351 21.7343 12.017 21.8266 12.0171C22.0131 12.0172 22.1918 12.0914 22.3236 12.2233C22.4553 12.3553 22.5292 12.5341 22.5291 12.7206C22.529 12.907 22.4548 13.0858 22.3229 13.2175C22.1909 13.3493 22.0121 13.4232 21.8256 13.4231ZM21.8256 10.5471C21.2492 10.5476 20.6965 10.7768 20.2889 11.1844C19.8814 11.592 19.6521 12.1446 19.6516 12.7211C19.6516 12.9541 19.6906 13.1861 19.7666 13.4121L12.5856 17.2351C12.3865 16.9459 12.1201 16.7096 11.8093 16.5464C11.4985 16.3831 11.1527 16.2979 10.8016 16.2981C9.97262 16.2981 9.21762 16.7731 8.85161 17.5141L2.40062 14.1121C1.71862 13.7541 1.20862 12.6321 1.26262 11.6101C1.29062 11.0771 1.47462 10.6631 1.75562 10.5031C1.93362 10.4031 2.14762 10.4111 2.37562 10.5301L2.41762 10.5531C4.12761 11.4531 9.72161 14.4001 9.95761 14.5091C10.3206 14.6781 10.5226 14.7461 11.1426 14.4521L22.7066 8.43806C22.8766 8.37406 23.0746 8.21106 23.0746 7.96406C23.0746 7.62206 22.7206 7.48706 22.7196 7.48706C22.0616 7.17206 21.0506 6.69906 20.0646 6.23706C17.9566 5.25006 15.5676 4.13206 14.5186 3.58206C13.6126 3.10806 12.8836 3.50806 12.7536 3.58806L12.5016 3.71306C7.77961 6.04806 1.45962 9.17806 1.09962 9.39706C0.456615 9.78906 0.0576154 10.5701 0.00561541 11.5391C-0.0743846 13.0761 0.708615 14.6791 1.82962 15.2661L8.65162 18.7841C8.72677 19.3008 8.98534 19.7733 9.38008 20.1152C9.77483 20.4571 10.2794 20.6455 10.8016 20.6461C11.3719 20.6451 11.9191 20.4204 12.3255 20.0202C12.7318 19.62 12.9649 19.0763 12.9746 18.5061L20.4886 14.4331C20.8686 14.7311 21.3416 14.8941 21.8256 14.8941C22.402 14.8935 22.9547 14.6643 23.3623 14.2567C23.7699 13.8491 23.9991 13.2965 23.9996 12.7201C23.9991 12.1436 23.7699 11.591 23.3623 11.1834C22.9547 10.7758 22.402 10.5466 21.8256 10.5461" fill="white"/>
</g>
</svg>
