<svg width="24" height="24" viewBox="0 0 24 24" fill="none" xmlns="http://www.w3.org/2000/svg">
<g id="Uniswap_Logo 1" clip-path="url(#clip0_1_145)">
<path id="Vector" d="M8.40726 4.69528C8.18853 4.66165 8.17928 4.65768 8.28225 4.64201C8.47953 4.61191 8.94534 4.65293 9.26636 4.72858C10.0158 4.9052 10.6977 5.35764 11.4256 6.16113L11.619 6.37461L11.8956 6.33051C13.061 6.14483 14.2466 6.29239 15.2382 6.74657C15.511 6.87152 15.9412 7.12026 15.9949 7.18419C16.012 7.20453 16.0435 7.33568 16.0648 7.47559C16.1384 7.95965 16.1016 8.33071 15.9522 8.60782C15.871 8.75865 15.8664 8.80642 15.9211 8.93549C15.9647 9.0385 16.0863 9.11471 16.2067 9.11456C16.4531 9.11423 16.7183 8.71926 16.8412 8.16972L16.89 7.95145L16.9868 8.06002C17.5172 8.65589 17.9339 9.46851 18.0054 10.0469L18.0241 10.1977L17.9349 10.0606C17.7815 9.82473 17.6273 9.66411 17.4298 9.53459C17.0739 9.3011 16.6976 9.22166 15.701 9.16958C14.8008 9.12255 14.2914 9.04634 13.7863 8.883C12.9268 8.60519 12.4936 8.2352 11.4726 6.90719C11.0192 6.31737 10.7389 5.991 10.4601 5.72818C9.8266 5.13101 9.20409 4.81782 8.40726 4.69528Z" fill="white"/>
<path id="Vector_2" d="M16.1974 6.01244C16.2201 5.61721 16.2742 5.35647 16.3829 5.11841C16.4259 5.02416 16.4662 4.94702 16.4724 4.94702C16.4786 4.94702 16.46 5.01659 16.4309 5.10159C16.3518 5.33267 16.3389 5.64869 16.3933 6.01641C16.4624 6.48295 16.5017 6.55025 16.999 7.05424C17.2323 7.29063 17.5037 7.58875 17.602 7.71675L17.7809 7.9495L17.602 7.78316C17.3833 7.57977 16.8803 7.18309 16.7691 7.12637C16.6947 7.08836 16.6836 7.08899 16.6376 7.13435C16.5953 7.17615 16.5864 7.23892 16.5805 7.53578C16.5713 7.99842 16.5077 8.29539 16.3542 8.59232C16.2712 8.75291 16.2581 8.71865 16.3332 8.53739C16.3893 8.40204 16.395 8.34254 16.3946 7.89463C16.3938 6.99478 16.286 6.77843 15.6541 6.40782C15.494 6.31394 15.2302 6.17852 15.0679 6.10691C14.9056 6.0353 14.7767 5.9729 14.7814 5.96826C14.7993 5.95059 15.4156 6.12892 15.6636 6.22351C16.0326 6.36423 16.0935 6.38246 16.1383 6.3655C16.1683 6.35414 16.1828 6.26739 16.1974 6.01244Z" fill="white"/>
<path id="Vector_3" d="M8.8315 7.55177C8.3874 6.94562 8.11266 6.01621 8.17212 5.32145L8.19054 5.10645L8.29159 5.12475C8.48146 5.15908 8.80873 5.27988 8.96202 5.37216C9.3826 5.6254 9.56468 5.95882 9.74994 6.81502C9.80419 7.06578 9.87537 7.34957 9.90813 7.44568C9.96088 7.60032 10.1601 7.96155 10.3222 8.19616C10.4389 8.36509 10.3614 8.44516 10.1034 8.42208C9.70943 8.38681 9.17577 8.02169 8.8315 7.55177Z" fill="white"/>
<path id="Vector_4" d="M15.6579 12.0631C13.5825 11.2347 12.8516 10.5155 12.8516 9.3022C12.8516 9.12365 12.8578 8.97754 12.8653 8.97754C12.8729 8.97754 12.9532 9.03649 13.0437 9.1085C13.4646 9.44315 13.9359 9.5861 15.2405 9.77479C16.0082 9.88586 16.4403 9.97554 16.8388 10.1066C18.1055 10.5231 18.8892 11.3683 19.0761 12.5196C19.1304 12.8541 19.0986 13.4815 19.0105 13.8121C18.941 14.0732 18.7289 14.5439 18.6726 14.562C18.657 14.567 18.6417 14.5077 18.6377 14.4271C18.6164 13.9948 18.396 13.5739 18.026 13.2587C17.6053 12.9002 17.04 12.6148 15.6579 12.0631Z" fill="white"/>
<path id="Vector_5" d="M14.2037 12.4075C14.1776 12.2541 14.1326 12.0581 14.1034 11.9721L14.0505 11.8157L14.1488 11.9251C14.2849 12.0766 14.3925 12.2704 14.4837 12.5286C14.5532 12.7256 14.5611 12.7842 14.5606 13.1044C14.56 13.4188 14.5513 13.4846 14.4871 13.662C14.3858 13.9416 14.26 14.1399 14.0491 14.3528C13.67 14.7353 13.1826 14.9471 12.4792 15.035C12.3569 15.0502 12.0006 15.076 11.6873 15.0921C10.8978 15.1328 10.3782 15.2169 9.91129 15.3795C9.84416 15.4028 9.78421 15.417 9.77815 15.411C9.75924 15.3924 10.0772 15.2045 10.3397 15.0791C10.71 14.9023 11.0785 14.8058 11.9043 14.6694C12.3122 14.6021 12.7334 14.5204 12.8404 14.4878C13.8506 14.1808 14.3698 13.3884 14.2037 12.4075Z" fill="white"/>
<path id="Vector_6" d="M15.1546 14.0825C14.8789 13.4948 14.8156 12.9274 14.9666 12.3982C14.9828 12.3417 15.0088 12.2954 15.0244 12.2954C15.04 12.2954 15.1051 12.3303 15.169 12.3729C15.2961 12.4577 15.5509 12.6005 16.2299 12.9676C17.0771 13.4255 17.5601 13.7801 17.8886 14.1853C18.1763 14.5401 18.3543 14.9442 18.44 15.437C18.4885 15.7162 18.4601 16.3878 18.3879 16.6689C18.1601 17.5552 17.6307 18.2513 16.8755 18.6575C16.7649 18.717 16.6656 18.7659 16.6549 18.7661C16.6441 18.7663 16.6844 18.6647 16.7444 18.5403C16.9985 18.0138 17.0274 17.5017 16.8353 16.9317C16.7177 16.5827 16.478 16.1569 15.9939 15.4371C15.4311 14.6003 15.2931 14.3776 15.1546 14.0825Z" fill="white"/>
<path id="Vector_7" d="M7.3582 17.2534C8.12837 16.6087 9.08661 16.1507 9.95952 16.0101C10.3357 15.9495 10.9624 15.9735 11.3107 16.0619C11.8691 16.2036 12.3686 16.5209 12.6284 16.899C12.8822 17.2685 12.9912 17.5905 13.1046 18.3069C13.1493 18.5896 13.1979 18.8733 13.2127 18.9376C13.2978 19.3089 13.4636 19.6057 13.6689 19.7547C13.9951 19.9914 14.5567 20.0061 15.1092 19.7925C15.203 19.7562 15.2844 19.7311 15.2901 19.7368C15.3102 19.7565 15.032 19.9412 14.8357 20.0384C14.5716 20.1691 14.3616 20.2197 14.0825 20.2197C13.5765 20.2197 13.1564 19.9645 12.8058 19.4441C12.7369 19.3417 12.5818 19.0349 12.4612 18.7624C12.0911 17.9254 11.9083 17.6704 11.4786 17.3914C11.1046 17.1486 10.6223 17.1051 10.2594 17.2815C9.7828 17.5132 9.64981 18.1171 9.9912 18.4998C10.1268 18.6519 10.3799 18.7831 10.5868 18.8086C10.9738 18.8563 11.3064 18.5644 11.3064 18.1769C11.3064 17.9254 11.2089 17.7818 10.9634 17.672C10.6281 17.522 10.2677 17.6973 10.2694 18.0096C10.2701 18.1428 10.3286 18.2264 10.4633 18.2868C10.5496 18.3256 10.5517 18.3287 10.4812 18.3141C10.1735 18.2509 10.1015 17.8832 10.3488 17.639C10.6458 17.346 11.26 17.4753 11.4709 17.8753C11.5595 18.0433 11.5698 18.378 11.4925 18.5801C11.3196 19.0324 10.8155 19.2702 10.3042 19.1408C9.95604 19.0526 9.81429 18.9572 9.39453 18.5286C8.66513 17.7836 8.38196 17.6393 7.33042 17.4765L7.12891 17.4454L7.3582 17.2534Z" fill="white"/>
<path id="Vector_8" fill-rule="evenodd" clip-rule="evenodd" d="M1.85873 0.566663C4.2946 3.49778 8.04994 8.06136 8.2364 8.31686C8.39032 8.52782 8.3324 8.71747 8.0687 8.86611C7.92204 8.94878 7.62052 9.03252 7.46956 9.03252C7.29883 9.03252 7.10649 8.951 6.96642 8.81926C6.86739 8.72616 6.46781 8.1346 5.54537 6.71553C4.83956 5.62973 4.24888 4.72899 4.23278 4.71392C4.19552 4.67902 4.19616 4.68021 5.4734 6.94598C6.2754 8.36872 6.54614 8.87171 6.54614 8.93898C6.54614 9.07581 6.50851 9.14771 6.33826 9.33599C6.05446 9.64989 5.92761 10.0026 5.83602 10.7325C5.73332 11.5508 5.44465 12.1288 4.6446 13.118C4.17628 13.6971 4.09964 13.8033 3.98147 14.0367C3.8326 14.3306 3.79168 14.4952 3.77509 14.8663C3.75757 15.2588 3.79172 15.5123 3.91265 15.8874C4.0185 16.2159 4.12899 16.4328 4.41149 16.8666C4.65527 17.241 4.79567 17.5192 4.79567 17.628C4.79567 17.7146 4.81234 17.7147 5.19012 17.6301C6.09415 17.4277 6.82826 17.0717 7.24113 16.6355C7.49663 16.3654 7.55661 16.2163 7.55856 15.8463C7.55983 15.6043 7.55126 15.5536 7.48528 15.4144C7.37786 15.1877 7.18231 14.9993 6.75128 14.7072C6.18655 14.3244 5.94535 14.0163 5.87871 13.5925C5.82404 13.2448 5.88747 12.9995 6.19988 12.3503C6.52326 11.6783 6.60339 11.392 6.6576 10.7147C6.69261 10.277 6.7411 10.1045 6.86791 9.96597C7.00015 9.8215 7.11922 9.77261 7.44653 9.72825C7.98015 9.65597 8.31993 9.51911 8.59924 9.26394C8.84153 9.04258 8.94292 8.82928 8.9585 8.50819L8.97029 8.26482L8.8349 8.10832C8.34457 7.54148 1.53036 0.121094 1.50019 0.121094C1.49374 0.121094 1.65509 0.321614 1.85873 0.566663ZM5.07091 15.3104C5.18177 15.1157 5.12288 14.8655 4.93743 14.7432C4.7622 14.6277 4.49 14.6821 4.49 14.8326C4.49 14.8786 4.51565 14.912 4.57338 14.9415C4.67058 14.9911 4.67766 15.0468 4.60117 15.1608C4.5237 15.2763 4.52995 15.3778 4.6188 15.4467C4.76201 15.5579 4.96472 15.4968 5.07091 15.3104Z" fill="white"/>
<path id="Vector_9" fill-rule="evenodd" clip-rule="evenodd" d="M9.30731 9.85597C9.05683 9.93226 8.81331 10.1955 8.7379 10.4715C8.69192 10.6399 8.71802 10.9353 8.78691 11.0265C8.89819 11.1738 9.00579 11.2126 9.2972 11.2106C9.86766 11.2067 10.3636 10.9641 10.4213 10.6608C10.4686 10.4122 10.2507 10.0677 9.9507 9.91648C9.79588 9.83845 9.46662 9.80749 9.30731 9.85597ZM9.97422 10.373C10.0622 10.2491 10.0237 10.1151 9.8741 10.0245C9.58917 9.85204 9.15825 9.99477 9.15825 10.2617C9.15825 10.3945 9.38294 10.5394 9.58894 10.5394C9.72602 10.5394 9.91364 10.4584 9.97422 10.373Z" fill="white"/>
</g>
<defs>
<clipPath id="clip0_1_145">
<rect width="24" height="23.7576" fill="white" transform="translate(0 0.121094)"/>
</clipPath>
</defs>
</svg>
