<svg width="14" height="15" viewBox="0 0 14 15" fill="none" xmlns="http://www.w3.org/2000/svg">
<g id="octicon:question-24" opacity="0.4" clip-path="url(#clip0_1_297)">
<path id="Vector" d="M6.39827 5.32133C6.27606 5.40534 6.17809 5.52001 6.11418 5.65383C6.05996 5.75337 5.96923 5.82799 5.86109 5.86196C5.75294 5.89592 5.63584 5.88659 5.53444 5.83593C5.43304 5.78527 5.35526 5.69723 5.31749 5.59036C5.27971 5.48349 5.28489 5.36613 5.33193 5.263C5.4486 5.0285 5.63118 4.78116 5.91352 4.59333C6.19818 4.40258 6.5581 4.29175 6.9991 4.29175C7.38293 4.29175 7.79768 4.4055 8.12727 4.65283C8.31101 4.78715 8.46002 4.96341 8.56189 5.16695C8.66376 5.37048 8.71555 5.59541 8.71293 5.823C8.71293 6.42558 8.41368 6.82633 8.11385 7.11508C8.00302 7.22183 7.8811 7.32391 7.7761 7.41141L7.69035 7.48316C7.60038 7.55676 7.51559 7.63647 7.4366 7.72175V8.52091C7.4366 8.63695 7.39051 8.74823 7.30846 8.83027C7.22641 8.91232 7.11513 8.95841 6.9991 8.95841C6.88307 8.95841 6.77179 8.91232 6.68974 8.83027C6.60769 8.74823 6.5616 8.63695 6.5616 8.52091V7.66166C6.5616 7.52341 6.60068 7.36766 6.70568 7.23233C6.83402 7.069 6.98918 6.93075 7.12452 6.81583L7.23127 6.72658L7.23185 6.726C7.33218 6.64258 7.42085 6.5685 7.50602 6.48566C7.72068 6.27858 7.83793 6.09133 7.83793 5.823C7.84051 5.73127 7.82034 5.64032 7.77922 5.55828C7.7381 5.47624 7.6773 5.40566 7.60227 5.35283C7.44593 5.23558 7.2231 5.16675 6.9991 5.16675C6.71093 5.16675 6.52427 5.23733 6.39827 5.32133ZM7.58243 10.4167C7.58243 10.5715 7.52098 10.7198 7.41158 10.8292C7.30218 10.9386 7.15381 11.0001 6.9991 11.0001C6.84439 11.0001 6.69602 10.9386 6.58662 10.8292C6.47723 10.7198 6.41577 10.5715 6.41577 10.4167C6.41577 10.262 6.47723 10.1137 6.58662 10.0043C6.69602 9.89487 6.84439 9.83341 6.9991 9.83341C7.15381 9.83341 7.30218 9.89487 7.41158 10.0043C7.52098 10.1137 7.58243 10.262 7.58243 10.4167Z" fill="white" stroke="white" strokeWidth="0.3"/>
<path id="Vector_2" d="M6.99821 1.08325C10.542 1.08325 13.4149 3.95617 13.4149 7.49992C13.4149 11.0437 10.542 13.9166 6.99821 13.9166C3.45446 13.9166 0.581543 11.0437 0.581543 7.49992C0.581543 3.95617 3.45446 1.08325 6.99821 1.08325ZM1.45654 7.49992C1.45654 8.96966 2.0404 10.3792 3.07966 11.4185C4.11892 12.4577 5.52847 13.0416 6.99821 13.0416C8.46795 13.0416 9.8775 12.4577 10.9168 11.4185C11.956 10.3792 12.5399 8.96966 12.5399 7.49992C12.5399 6.03018 11.956 4.62063 10.9168 3.58137C9.8775 2.5421 8.46795 1.95825 6.99821 1.95825C5.52847 1.95825 4.11892 2.5421 3.07966 3.58137C2.0404 4.62063 1.45654 6.03018 1.45654 7.49992Z" fill="white" stroke="white" strokeWidth="0.3"/>
</g>
<defs>
<clipPath id="clip0_1_297">
<rect width="14" height="14" fill="white" transform="translate(-0.000488281 0.5)"/>
</clipPath>
</defs>
</svg>
